<svg width="451" height="123" viewBox="0 0 451 123" fill="none" xmlns="http://www.w3.org/2000/svg">
<g clip-path="url(#clip0_27_7)">
<path fill-rule="evenodd" clip-rule="evenodd" d="M362.821 64.1869L363.267 42.8899C363.267 41.8546 362.425 41.0166 361.434 41.0166C360.394 41.0166 359.552 41.8546 359.552 42.8406L359.106 121.57C359.106 122.902 355.044 122.902 355.044 121.57L355.49 42.8406C355.49 41.8053 354.647 41.0166 353.657 40.9673C352.616 40.9673 351.824 41.8053 351.774 42.7913L351.328 121.521C351.328 122.902 347.266 122.852 347.266 121.521L347.712 42.7913C347.712 41.756 346.87 40.918 345.879 40.918C344.839 40.918 344.046 41.756 343.997 42.742L343.551 121.472C343.551 122.803 339.489 122.803 339.489 121.472L339.934 42.742C339.934 41.7067 339.092 40.8687 338.102 40.8687C337.061 40.8687 336.269 41.7067 336.219 42.6927L335.773 111.514C335.773 112.845 331.711 112.845 331.711 111.514L332.157 42.6927C332.157 41.6574 331.315 40.8687 330.324 40.8194C329.284 40.8194 328.491 41.6574 328.441 42.6434L327.996 121.373C327.996 122.704 323.933 122.704 323.933 121.373L324.379 42.6434C324.379 41.6081 323.537 40.8194 322.546 40.7701C321.506 40.7701 320.713 41.6081 320.664 42.5941L320.218 121.324C320.218 122.655 316.156 122.655 316.156 121.324L316.602 42.5941C316.602 41.5588 315.76 40.7701 314.769 40.7701C313.729 40.7701 312.936 41.6081 312.886 42.5941L312.44 121.324C312.44 122.655 308.378 122.655 308.378 121.324L308.824 42.5941C308.824 41.5588 307.982 40.7701 306.991 40.7208C305.951 40.7208 305.109 41.5588 305.109 42.5448L304.663 121.275C304.663 122.606 300.601 122.606 300.601 121.275L301.047 42.5448C301.047 41.5588 300.204 40.7208 299.214 40.6715C298.173 40.6715 297.331 41.5095 297.331 42.4955L296.885 121.225C296.885 122.556 292.823 122.556 292.823 121.225L293.269 42.4955C293.269 41.4602 292.427 40.6715 291.436 40.6222C290.396 40.6222 289.603 41.4602 289.554 42.4462L289.108 86.0262C289.108 87.3572 285.046 87.3572 285.046 86.0262L285.491 42.4462C285.491 41.4109 284.649 40.6222 283.659 40.5729C282.618 40.5729 281.826 41.411 281.776 42.3969L281.33 73.1099C281.33 74.441 277.268 74.441 277.268 73.1099L277.714 42.3969C277.714 41.3617 276.872 40.5729 275.881 40.5236C274.841 40.5236 274.048 41.3617 273.998 42.3476L273.553 121.077C273.553 122.409 269.49 122.409 269.49 121.077L269.936 42.3476C269.936 41.3124 269.094 40.4743 268.103 40.4743C267.063 40.4743 266.221 41.3124 266.221 42.2983L265.775 121.028C265.775 122.359 261.713 122.359 261.713 121.028L262.159 42.2983C262.159 41.2631 261.317 40.4743 260.326 40.425C259.286 40.425 258.493 41.2631 258.443 42.249L257.998 120.979C257.998 122.359 253.787 122.359 253.787 120.979L254.233 42.249C254.233 41.2138 253.39 40.3757 252.4 40.3757C251.359 40.3757 250.517 41.2138 250.517 42.1997L250.071 114.274C250.071 115.605 246.009 115.605 246.009 114.274L246.455 42.1997C246.455 41.1645 245.613 40.3757 244.622 40.3264C243.582 40.3264 242.74 41.1645 242.74 42.1504L242.294 120.88C242.294 122.211 238.232 122.211 238.232 120.88L238.677 42.1504C238.677 41.1152 237.835 40.3264 236.844 40.2771C235.804 40.2771 235.012 41.1152 234.962 42.1011L234.516 120.831C234.516 122.162 230.454 122.162 230.454 120.831L230.9 42.1011C230.9 41.0659 230.058 40.2278 229.067 40.2278C228.027 40.2278 227.184 41.0659 227.184 42.0518L226.739 120.782C226.739 122.113 222.676 122.113 222.676 120.782L223.122 42.0518C223.122 41.0166 222.28 40.1785 221.289 40.1785C220.249 40.1785 219.407 41.0166 219.407 42.0025L218.961 120.732C218.961 122.063 214.899 122.063 214.899 120.732L215.345 42.0025C215.345 40.9673 214.503 40.1785 213.512 40.1292C212.471 40.1292 211.679 40.9673 211.629 41.9532L211.183 120.683C211.183 122.014 207.121 122.014 207.121 120.683L207.567 41.9532C207.567 40.918 206.725 40.0799 205.734 40.0799C204.694 40.0799 203.852 40.918 203.852 41.9039L203.406 87.4558C203.406 88.7869 199.344 88.7869 199.344 87.4558L199.79 41.8546C199.79 40.8194 198.947 40.0306 197.957 39.9813C196.916 39.9813 196.124 40.8194 196.074 41.8053L195.628 103.083C195.628 104.415 191.566 104.415 191.566 103.083L192.012 41.8053C192.012 40.7701 191.17 39.9813 190.179 39.932C189.139 39.932 188.346 40.7701 188.297 41.756L187.851 120.486C187.851 121.817 183.789 121.817 183.789 120.486L184.234 41.756C184.234 40.7208 183.392 39.932 182.401 39.8827C181.361 39.8827 180.569 40.7208 180.519 41.7067L180.073 120.437C180.073 121.768 176.011 121.768 176.011 120.437L176.457 41.7067C176.457 40.6715 175.615 39.8827 174.624 39.8334C173.584 39.8334 172.791 40.6715 172.741 41.6574L172.296 111.366C172.296 112.697 168.233 112.697 168.233 111.366L168.679 41.6574C168.679 40.6222 167.837 39.8334 166.846 39.7841C165.806 39.7841 165.013 40.6222 164.964 41.6081L164.518 120.338C164.518 121.669 160.456 121.669 160.456 120.338L160.902 41.6081C160.902 40.5729 160.06 39.7348 159.069 39.7348C158.028 39.7348 157.236 40.5729 157.186 41.5588L156.74 120.289C156.74 121.62 152.678 121.62 152.678 120.289L153.124 41.5588C153.124 40.5236 152.282 39.7348 151.291 39.6855C150.251 39.6855 149.458 40.5236 149.409 41.5095L148.963 120.239C148.963 121.57 144.901 121.57 144.901 120.239L145.347 41.5095C145.347 40.4743 144.504 39.6855 143.514 39.6362C142.473 39.6362 141.681 40.4743 141.631 41.4602L141.185 120.19C141.185 121.521 137.123 121.521 137.123 120.19L137.569 41.4602C137.569 40.425 136.727 39.6362 135.736 39.5869C134.696 39.5869 133.854 40.425 133.854 41.4109L133.408 84.3007C133.408 85.6318 129.346 85.6318 129.346 84.3007L129.791 41.4109C129.791 40.3757 128.949 39.5376 127.958 39.5376C126.918 39.5376 126.076 40.3757 126.076 41.3617L125.63 84.2514C125.63 85.5825 121.568 85.5825 121.568 84.2514L122.014 41.3617C122.014 40.3264 121.172 39.5376 120.181 39.4883C119.141 39.4883 118.298 40.3264 118.298 41.3124L117.853 120.042C117.853 121.373 113.79 121.373 113.79 120.042L114.236 41.3124C114.236 40.2771 113.394 39.4883 112.403 39.439C111.363 39.439 110.521 40.2771 110.521 41.2631L110.075 119.993C110.075 121.324 106.013 121.324 106.013 119.993L106.459 41.2631C106.459 40.2278 105.617 39.439 104.626 39.3897C103.585 39.3897 102.743 40.2278 102.743 41.2138L102.297 119.944C102.297 121.275 98.2353 121.275 98.2353 119.944L98.6811 41.2138C98.6811 40.1785 97.839 39.3897 96.8482 39.3404C95.8079 39.3404 94.9657 40.1785 94.9657 41.1645L94.5199 119.894C94.5199 121.225 90.4577 121.225 90.4577 119.894L90.9036 41.1645C90.9036 40.1292 90.0614 39.3404 89.0706 39.2911C88.0303 39.2911 87.2377 40.1292 87.1882 41.1152L86.7423 119.845C86.7423 121.176 82.6802 121.176 82.6802 119.845L83.126 41.1152C83.126 40.0799 82.2838 39.2418 81.2931 39.2418C80.2528 39.2418 79.4601 40.0306 79.4106 41.0659L78.9648 119.796C78.9648 121.127 74.9026 121.127 74.9026 119.796L75.3484 41.0659C75.3484 40.0306 74.5063 39.1925 73.5155 39.1925C72.4752 39.1925 71.6826 40.0306 71.633 41.0166L71.1872 68.2787C71.1872 69.6097 67.125 69.6097 67.125 68.2787L67.5709 41.0166C67.5709 39.9813 66.7287 39.1925 65.7379 39.1432C64.6976 39.1432 63.905 39.9813 63.8555 40.9673L63.4096 119.697C63.4096 121.028 59.3474 121.028 59.3474 119.697L59.7933 40.9673C59.7933 39.932 58.9511 39.1432 57.9604 39.0939C56.92 39.0939 56.1274 39.932 56.0779 40.918L55.632 119.648C55.632 120.979 51.5699 120.979 51.5699 119.648L52.0157 40.918C52.0157 39.8827 51.1736 39.0939 50.1828 39.0446C49.1425 39.0446 48.3499 39.8827 48.3003 40.8687L47.8545 104.464C47.8545 105.795 43.7923 105.795 43.7923 104.464L44.2382 40.8687C44.2382 39.8334 43.396 39.0446 42.4052 39.0446C41.4144 39.0446 40.5723 39.8334 40.5228 40.8687L40.0769 84.2021C40.0769 85.5332 36.0147 85.5332 36.0147 84.2021L36.4606 40.8687C36.4606 39.8334 35.6184 39.0446 34.6277 38.9953C33.5873 38.9953 32.7947 39.8334 32.7452 40.8194L32.2993 119.549C32.2993 120.88 28.2372 120.88 28.2372 119.549L28.683 40.8194C28.683 39.7841 27.8409 38.9953 26.8501 38.946C25.8098 38.946 25.0172 39.7841 24.9676 40.7701L24.5218 119.5C24.5218 120.831 20.4596 120.831 20.4596 119.5L20.9054 40.7701C20.9054 39.7348 20.0633 38.946 19.0725 38.8967C18.0322 38.8967 17.2396 39.7348 17.19 40.7208L16.7442 119.451C16.7442 120.782 12.682 120.782 12.682 119.451L13.1279 40.7208C13.1279 39.6855 12.2857 38.8474 11.2949 38.8474C10.2546 38.8474 9.46201 39.6855 9.41247 40.6715L8.96662 119.303C5.30076 118.662 2.47706 114.817 2.5266 110.281C3.26968 88.146 -0.14849 52.7496 0.000125619 30.3681C0.000125619 25.3889 3.56691 19.5717 7.67862 18.7336C138.51 -7.09887 312.936 -6.1622 443.47 21.1492C447.582 22.0366 451.05 27.8538 451 32.833C450.901 55.2146 447.136 90.6109 446.988 112.943C446.988 117.479 444.114 121.275 440.448 121.916L440.894 43.2843C440.894 42.249 440.052 41.4109 439.061 41.4109C438.021 41.4109 437.228 42.249 437.179 43.235L436.733 121.965C436.733 123.296 432.671 123.296 432.671 121.965L433.117 43.235C433.117 42.1997 432.275 41.3617 431.284 41.3617C430.243 41.3617 429.401 42.1997 429.401 43.1857L428.955 121.916C428.955 123.247 424.893 123.247 424.893 121.916L425.339 43.1857C425.339 42.1504 424.497 41.3124 423.506 41.3124C422.466 41.3124 421.624 42.1504 421.624 43.1364L421.178 87.6037C421.178 88.9348 417.116 88.9348 417.116 87.6037L417.562 43.1364C417.562 42.1011 416.719 41.2631 415.729 41.2631C414.688 41.2631 413.846 42.1011 413.846 43.0871L413.4 121.817C413.4 123.148 409.338 123.148 409.338 121.817L409.784 43.0871C409.784 42.0518 408.942 41.2631 407.951 41.2138C406.911 41.2138 406.118 42.0518 406.069 43.0378L405.623 100.569C405.623 101.9 401.561 101.9 401.561 100.569L402.006 43.0378C402.006 42.0025 401.164 41.2138 400.173 41.1645C399.133 41.1645 398.291 42.0025 398.291 42.9885L397.845 121.718C397.845 123.049 393.783 123.049 393.783 121.718L394.229 42.9885C394.229 42.0025 393.387 41.1645 392.396 41.1152C391.356 41.1152 390.513 41.9532 390.513 42.9392L390.068 121.669C390.068 123 386.005 123 386.005 121.669L386.451 42.9392C386.451 41.9039 385.609 41.0659 384.618 41.0659C383.578 41.0659 382.736 41.9039 382.736 42.8899L382.29 76.3144C382.29 77.6454 378.228 77.6454 378.228 76.3144L378.674 42.8899C378.674 41.8546 377.832 41.0166 376.841 41.0166C375.8 41.0166 374.958 41.8546 374.958 42.8406L374.512 64.1376C374.512 65.4687 370.45 65.4687 370.45 64.1376L370.896 42.8406C370.896 41.8053 370.054 40.9673 369.063 40.9673C368.023 40.9673 367.181 41.8053 367.181 42.7913L366.735 64.0883C366.735 65.4194 362.673 65.4194 362.673 64.0883L362.821 64.1869Z" fill="#222222"/>
<path fill-rule="evenodd" clip-rule="evenodd" d="M364.357 63.5952C364.357 63.5952 364.902 63.5952 365.149 63.5952L365.595 42.8405C365.595 41.4601 364.605 40.277 363.317 40.0305C364.258 40.6713 364.803 41.7066 364.803 42.8405L364.357 63.5459V63.5952ZM371.045 40.0798C371.986 40.7206 372.531 41.7559 372.531 42.8898L372.085 63.5952C372.085 63.5952 372.63 63.5952 372.878 63.5952L373.323 42.8405C373.323 41.4601 372.382 40.277 371.045 40.0305V40.0798ZM378.822 40.0798C379.714 40.7206 380.308 41.7559 380.308 42.8898L379.862 75.7226C379.862 75.7226 380.407 75.7226 380.655 75.7226L381.101 42.8405C381.101 41.4601 380.11 40.3263 378.822 40.0305V40.0798ZM386.6 40.0798C387.491 40.7206 388.086 41.7559 388.086 42.8898L387.64 121.028C387.64 121.028 388.185 121.077 388.433 121.028L388.878 42.8405C388.878 41.4601 387.888 40.3263 386.6 40.0305V40.0798ZM394.377 40.0798C395.319 40.7206 395.863 41.7559 395.863 42.8898L395.418 121.028C395.418 121.028 395.963 121.077 396.21 121.028L396.656 42.8405C396.656 41.4601 395.665 40.3263 394.377 40.0305V40.0798ZM402.155 40.0798C403.096 40.7206 403.641 41.7559 403.641 42.8898L403.195 99.879C403.195 99.879 403.74 99.9283 403.988 99.879L404.434 42.8898C404.434 41.5094 403.443 40.3263 402.155 40.0798ZM409.932 40.0798C410.874 40.7206 411.419 41.7559 411.419 42.8898L410.973 121.028C410.973 121.028 411.518 121.028 411.765 121.028L412.211 42.8405C412.211 41.4601 411.27 40.3263 409.932 40.0305V40.0798ZM417.71 40.1291C418.602 40.7699 419.196 41.8052 419.196 42.9391L418.75 86.8148C418.75 86.8148 419.295 86.8148 419.543 86.8148L419.989 42.8898C419.989 41.5094 419.048 40.3756 417.71 40.0798V40.1291ZM425.488 40.1291C426.379 40.7699 426.974 41.8052 426.974 42.9391L426.528 121.077C426.528 121.077 427.073 121.077 427.321 121.077L427.766 42.8898C427.766 41.5094 426.825 40.3756 425.488 40.0798V40.1291ZM433.265 40.1291C434.157 40.7699 434.751 41.8052 434.751 42.9391L434.305 121.077C434.305 121.077 434.85 121.077 435.098 121.077L435.544 42.8898C435.544 41.5094 434.603 40.3756 433.265 40.0798V40.1291ZM441.043 40.1784C441.984 40.8192 442.529 41.8545 442.529 42.9884L442.083 119.401C442.38 119.253 442.628 119.056 442.876 118.859L443.321 43.0377C443.321 41.6573 442.38 40.4741 441.043 40.2277V40.1784ZM7.57941 20.3603C3.96309 21.3956 1.5357 26.9663 1.5357 30.3679C1.38708 57.1371 4.80525 83.7583 4.65663 110.527C4.65663 113.042 5.79602 115.95 8.02526 117.331V116.986C6.34095 115.359 5.44925 112.844 5.44925 110.527C5.59787 83.7583 2.1797 57.1371 2.32832 30.3679C2.32832 27.0649 4.3594 22.1351 7.57941 20.3603ZM13.7717 38.1571C14.6634 38.798 15.2579 39.8333 15.2579 40.9671L14.8121 119.105C14.8121 119.105 15.357 119.105 15.6047 119.105L16.0505 40.9178C16.0505 39.5375 15.0598 38.4036 13.7717 38.1078V38.1571ZM21.5493 38.1571C22.441 38.798 23.0355 39.8333 23.0355 40.9671L22.5896 119.105C22.5896 119.105 23.1346 119.155 23.3822 119.105L23.8281 40.9178C23.8281 39.5375 22.8373 38.4036 21.5493 38.1078V38.1571ZM29.3269 38.1571C30.2186 38.798 30.813 39.8333 30.813 40.9671L30.3672 119.105C30.3672 119.105 30.9121 119.105 31.1598 119.105L31.6057 40.9178C31.6057 39.5375 30.6149 38.4036 29.3269 38.1078V38.1571ZM37.1045 38.1571C37.9962 38.798 38.5906 39.8333 38.5906 40.9671L38.1448 83.709C38.1448 83.709 38.6897 83.709 38.9374 83.709L39.3832 40.9671C39.3832 39.5868 38.3925 38.4529 37.1045 38.1571ZM44.882 38.1571C45.7737 38.798 46.3682 39.8333 46.3682 40.9671L45.9223 104.02C45.9223 104.02 46.4673 104.02 46.715 104.02L47.1608 40.9671C47.1608 39.5868 46.17 38.4529 44.882 38.1571ZM52.6596 38.1571C53.5513 38.798 54.1458 39.8333 54.1458 40.9671L53.6999 119.105C53.6999 119.105 54.2448 119.105 54.4925 119.105L54.9384 40.9178C54.9384 39.5375 53.9971 38.4036 52.6596 38.1078V38.1571ZM60.4372 38.1571C61.3289 38.798 61.9233 39.8333 61.9233 40.9671L61.4775 119.105C61.4775 119.105 62.0224 119.105 62.2701 119.105L62.716 40.9178C62.716 39.5375 61.7252 38.4036 60.4372 38.1078V38.1571ZM68.2147 38.1571C69.1064 38.798 69.7009 39.8333 69.7009 40.9671L69.2551 67.6377C69.2551 67.6377 69.8 67.6377 70.0477 67.6377L70.4935 40.9178C70.4935 39.5375 69.5028 38.4036 68.2147 38.1078V38.1571ZM75.9923 38.1571C76.9336 38.798 77.4785 39.8333 77.4785 40.9671L77.0326 119.105C77.0326 119.105 77.5775 119.105 77.8252 119.105L78.2711 40.9178C78.2711 39.5375 77.2803 38.4036 75.9923 38.1078V38.1571ZM83.7699 38.1571C84.6616 38.798 85.256 39.8333 85.256 40.9671L84.8102 119.105C84.8102 119.105 85.3551 119.105 85.6028 119.105L86.0487 40.9178C86.0487 39.5375 85.1074 38.4036 83.7699 38.1078V38.1571ZM91.5474 38.1571C92.4887 38.798 93.0336 39.8333 93.0336 40.9671L92.5878 119.105C92.5878 119.105 93.1327 119.105 93.3804 119.105L93.8262 40.9178C93.8262 39.5375 92.8355 38.4036 91.5474 38.1078V38.1571ZM99.325 38.1571C100.217 38.798 100.811 39.8333 100.811 40.9671L100.365 119.105C100.365 119.105 100.91 119.155 101.158 119.105L101.604 40.9178C101.604 39.5375 100.613 38.3543 99.325 38.1078V38.1571ZM107.103 38.1571C107.994 38.798 108.589 39.8333 108.589 40.9671L108.143 119.105C108.143 119.105 108.688 119.105 108.936 119.105L109.381 40.9178C109.381 39.5375 108.391 38.4036 107.103 38.1078V38.1571ZM114.88 38.1571C115.772 38.798 116.366 39.8333 116.366 40.9671L115.92 119.105C115.92 119.105 116.465 119.155 116.713 119.105L117.159 40.9178C117.159 39.5375 116.168 38.4036 114.88 38.1078V38.1571ZM122.658 38.1571C123.549 38.798 124.144 39.8333 124.144 40.9671L123.698 83.2653C123.698 83.2653 124.243 83.2653 124.491 83.2653L124.937 40.9178C124.937 39.5375 123.946 38.3543 122.658 38.1078V38.1571ZM130.435 38.2064C131.327 38.8473 131.921 39.8826 131.921 41.0164L131.476 83.3146C131.476 83.3146 132.021 83.3146 132.268 83.3146L132.714 40.9671C132.714 39.5868 131.773 38.4036 130.435 38.1571V38.2064ZM138.213 38.2064C139.105 38.8473 139.699 39.8826 139.699 41.0164L139.253 119.155C139.253 119.155 139.798 119.155 140.046 119.155L140.492 40.9671C140.492 39.5868 139.501 38.4036 138.213 38.1571V38.2064ZM145.99 38.2064C146.882 38.8473 147.477 39.8826 147.477 41.0164L147.031 119.155C147.031 119.155 147.576 119.204 147.823 119.155L148.269 40.9671C148.269 39.5868 147.278 38.4529 145.99 38.1571V38.2064ZM153.768 38.2064C154.66 38.8473 155.254 39.8826 155.254 41.0164L154.808 119.155C154.808 119.155 155.353 119.155 155.601 119.155L156.047 40.9671C156.047 39.5868 155.106 38.4529 153.768 38.1571V38.2064ZM161.546 38.2064C162.437 38.8473 163.032 39.8826 163.032 41.0164L162.586 119.155C162.586 119.155 163.131 119.204 163.379 119.155L163.824 40.9671C163.824 39.5868 162.883 38.4529 161.546 38.1571V38.2064ZM169.323 38.2064C170.215 38.8473 170.809 39.8826 170.809 41.0164L170.363 110.133C170.363 110.133 170.908 110.133 171.156 110.133L171.602 40.9671C171.602 39.5868 170.611 38.4529 169.323 38.1571V38.2064ZM177.101 38.2064C177.992 38.8473 178.587 39.8826 178.587 41.0164L178.141 119.155C178.141 119.155 178.686 119.155 178.934 119.155L179.38 40.9671C179.38 39.5868 178.438 38.4529 177.101 38.1571V38.2064ZM184.878 38.2557C185.82 38.8966 186.364 39.9319 186.364 41.0657L185.919 119.204C185.919 119.204 186.464 119.204 186.711 119.204L187.157 41.0164C187.157 39.6361 186.166 38.5022 184.878 38.2064V38.2557ZM192.656 38.2557C193.548 38.8966 194.142 39.9319 194.142 41.0657L193.696 101.752C193.696 101.752 194.241 101.802 194.489 101.752L194.935 41.0657C194.935 39.6854 193.944 38.5515 192.656 38.2557ZM200.433 38.2557C201.325 38.8966 201.92 39.9319 201.92 41.0657L201.474 86.0753C201.474 86.0753 202.019 86.1246 202.266 86.0753L202.712 41.0657C202.712 39.6854 201.721 38.5515 200.433 38.2557ZM208.211 38.305C209.103 38.9459 209.697 39.9812 209.697 41.115L209.251 119.253C209.251 119.253 209.796 119.253 210.044 119.253L210.49 41.0657C210.49 39.6854 209.549 38.5022 208.211 38.2557V38.305ZM215.989 38.305C216.88 38.9459 217.475 39.9812 217.475 41.115L217.029 119.253C217.029 119.253 217.574 119.253 217.822 119.253L218.267 41.0657C218.267 39.6854 217.326 38.5022 215.989 38.2557V38.305ZM223.766 38.3543C224.658 38.9459 225.252 40.0305 225.252 41.1643L224.806 119.303C224.806 119.303 225.351 119.303 225.599 119.303L226.045 41.115C226.045 39.7347 225.104 38.5515 223.766 38.305V38.3543ZM231.544 38.3543C232.435 38.9952 233.03 40.0305 233.03 41.1643L232.584 119.303C232.584 119.303 233.129 119.303 233.377 119.303L233.823 41.115C233.823 39.7347 232.881 38.6008 231.544 38.305V38.3543ZM239.321 38.3543C240.213 38.9952 240.807 40.0305 240.807 41.1643L240.362 119.303C240.362 119.303 240.907 119.352 241.154 119.303L241.6 41.115C241.6 39.7347 240.609 38.6008 239.321 38.305V38.3543ZM247.099 38.3543C247.991 38.9952 248.585 40.0305 248.585 41.1643L248.139 112.647C248.139 112.647 248.684 112.647 248.932 112.647L249.378 41.115C249.378 39.7347 248.436 38.6008 247.099 38.305V38.3543ZM254.876 38.3543C255.768 38.9952 256.363 40.0305 256.363 41.1643L255.917 119.352C255.917 119.352 256.462 119.401 256.709 119.352L257.155 41.1643C257.155 39.784 256.214 38.6008 254.876 38.3543ZM262.803 38.3543C263.694 38.9952 264.289 40.0305 264.289 41.1643L263.843 119.303C263.843 119.303 264.388 119.303 264.636 119.303L265.081 41.115C265.081 39.7347 264.091 38.5515 262.803 38.305V38.3543ZM270.58 38.3543C271.472 38.9952 272.066 40.0305 272.066 41.1643L271.621 119.303C271.621 119.303 272.165 119.303 272.413 119.303L272.859 41.115C272.859 39.7347 271.918 38.5515 270.58 38.305V38.3543ZM278.358 38.3543C279.249 38.9952 279.844 40.0305 279.844 41.1643L279.398 71.3351C279.398 71.3351 279.893 71.3351 280.191 71.3351L280.637 41.1643C280.637 39.784 279.695 38.6501 278.358 38.3543ZM286.135 38.3543C287.027 38.9952 287.622 40.0305 287.622 41.1643L287.176 84.1527C287.176 84.1527 287.721 84.1527 287.968 84.1527L288.414 41.1643C288.414 39.784 287.473 38.6501 286.135 38.3543ZM293.913 38.3543C294.805 38.9952 295.399 40.0305 295.399 41.1643L294.953 119.303C294.953 119.303 295.498 119.303 295.746 119.303L296.192 41.115C296.192 39.7347 295.201 38.6008 293.913 38.305V38.3543ZM301.69 38.4036C302.582 39.0445 303.177 40.0798 303.177 41.2136L302.731 119.352C302.731 119.352 303.276 119.352 303.523 119.352L303.969 41.1643C303.969 39.784 302.978 38.6501 301.69 38.3543V38.4036ZM309.468 38.4036C310.36 39.0445 310.954 40.0798 310.954 41.2136L310.508 119.352C310.508 119.352 311.053 119.352 311.301 119.352L311.747 41.1643C311.747 39.784 310.806 38.6501 309.468 38.3543V38.4036ZM317.246 38.4529C318.137 39.0445 318.732 40.1291 318.732 41.2629L318.286 119.401C318.286 119.401 318.831 119.401 319.079 119.401L319.524 41.2136C319.524 39.8333 318.583 38.6501 317.246 38.4036V38.4529ZM325.023 38.4529C325.964 39.0938 326.509 40.1291 326.509 41.2629L326.063 119.401C326.311 119.401 326.608 119.401 326.856 119.401L327.302 41.2136C327.302 39.8333 326.311 38.6994 325.023 38.4036V38.4529ZM332.801 38.4529C333.692 39.0938 334.287 40.1291 334.287 41.2629L333.841 109.541C333.841 109.541 334.386 109.541 334.634 109.541L335.08 41.2629C335.08 39.8826 334.089 38.7487 332.801 38.4529ZM340.578 38.4529C341.47 39.0938 342.064 40.1291 342.064 41.2629L341.619 119.401C341.619 119.401 342.164 119.401 342.411 119.401L342.857 41.2136C342.857 39.8333 341.866 38.6994 340.578 38.4036V38.4529ZM348.356 38.4529C349.248 39.0938 349.842 40.1291 349.842 41.2629L349.396 119.401C349.396 119.401 349.941 119.401 350.189 119.401L350.635 41.2136C350.635 39.8333 349.644 38.6994 348.356 38.4036V38.4529ZM356.133 38.4529C357.075 39.0938 357.62 40.1291 357.62 41.2629L357.174 119.401C357.174 119.401 357.719 119.451 357.966 119.401L358.412 41.2136C358.412 39.8333 357.421 38.6994 356.133 38.4036V38.4529Z" fill="#FF4101"/>
<path fill-rule="evenodd" clip-rule="evenodd" d="M444.857 24.6493C444.263 24.1563 443.619 23.8112 442.925 23.6633C408.496 16.4657 373.472 11.5359 338.448 8.18357C300.997 4.58477 263.298 2.81002 225.649 2.56353C187.999 2.36633 150.3 3.7467 112.8 6.90181C77.7757 9.85972 42.6528 14.3952 8.17388 21.2477C7.87665 21.297 7.57942 21.3956 7.28218 21.5435C6.5391 21.7407 5.64741 22.4802 4.90433 23.5154C3.81448 25.0437 3.51725 26.7198 4.21079 27.2128C4.90433 27.7058 6.39049 26.8677 7.48034 25.3395C8.47111 23.9591 8.81788 22.5295 8.37204 21.8886C42.2565 15.8742 76.6363 11.881 111.016 9.21884C149.111 6.26092 187.405 4.97916 225.649 5.22565C263.892 5.42285 302.186 7.1483 340.232 10.5006C375.255 13.6064 410.329 18.1419 444.857 24.6986V24.6493Z" fill="#FF4101"/>
</g>
<defs>
<clipPath id="clip0_27_7">
<rect width="451" height="123" fill="white"/>
</clipPath>
</defs>
</svg>
