<svg width="32" height="32" viewBox="0 0 32 32" fill="none" xmlns="http://www.w3.org/2000/svg">
<rect width="32" height="32" fill="white"/>
<g clip-path="url(#clip0_34_2)">
<path fill-rule="evenodd" clip-rule="evenodd" d="M24.5255 15.9849L24.5531 14.6627C24.5531 14.5985 24.5009 14.5464 24.4393 14.5464C24.3748 14.5464 24.3225 14.5985 24.3225 14.6597L24.2948 19.5476C24.2948 19.6302 24.0426 19.6302 24.0426 19.5476L24.0703 14.6597C24.0703 14.5954 24.018 14.5464 23.9565 14.5434C23.8919 14.5434 23.8427 14.5954 23.8396 14.6566L23.8119 19.5445C23.8119 19.6302 23.5597 19.6271 23.5597 19.5445L23.5874 14.6566C23.5874 14.5923 23.5351 14.5403 23.4736 14.5403C23.409 14.5403 23.3598 14.5923 23.3567 14.6535L23.3291 19.5414C23.3291 19.6241 23.0769 19.6241 23.0769 19.5414L23.1045 14.6535C23.1045 14.5893 23.0523 14.5372 22.9907 14.5372C22.9262 14.5372 22.877 14.5893 22.8739 14.6505L22.8462 18.9232C22.8462 19.0058 22.594 19.0058 22.594 18.9232L22.6217 14.6505C22.6217 14.5862 22.5694 14.5372 22.5079 14.5342C22.4433 14.5342 22.3941 14.5862 22.391 14.6474L22.3633 19.5353C22.3633 19.6179 22.1111 19.6179 22.1111 19.5353L22.1388 14.6474C22.1388 14.5831 22.0865 14.5342 22.025 14.5311C21.9604 14.5311 21.9112 14.5831 21.9081 14.6444L21.8805 19.5322C21.8805 19.6149 21.6283 19.6149 21.6283 19.5322L21.6559 14.6444C21.6559 14.5801 21.6037 14.5311 21.5422 14.5311C21.4776 14.5311 21.4284 14.5831 21.4253 14.6444L21.3976 19.5322C21.3976 19.6149 21.1454 19.6149 21.1454 19.5322L21.1731 14.6444C21.1731 14.5801 21.1208 14.5311 21.0593 14.5281C20.9947 14.5281 20.9424 14.5801 20.9424 14.6413L20.9147 19.5292C20.9147 19.6118 20.6625 19.6118 20.6625 19.5292L20.6902 14.6413C20.6902 14.5801 20.6379 14.5281 20.5764 14.525C20.5118 14.525 20.4596 14.577 20.4596 14.6382L20.4319 19.5261C20.4319 19.6088 20.1797 19.6088 20.1797 19.5261L20.2074 14.6382C20.2074 14.574 20.1551 14.525 20.0936 14.5219C20.029 14.5219 19.9798 14.574 19.9767 14.6352L19.949 17.3408C19.949 17.4234 19.6968 17.4234 19.6968 17.3408L19.7245 14.6352C19.7245 14.5709 19.6722 14.5219 19.6107 14.5189C19.5461 14.5189 19.4969 14.5709 19.4938 14.6321L19.4661 16.5389C19.4661 16.6216 19.2139 16.6216 19.2139 16.5389L19.2416 14.6321C19.2416 14.5678 19.1893 14.5189 19.1278 14.5158C19.0632 14.5158 19.014 14.5678 19.011 14.6291L18.9833 19.5169C18.9833 19.5996 18.7311 19.5996 18.7311 19.5169L18.7588 14.6291C18.7588 14.5648 18.7065 14.5128 18.645 14.5128C18.5804 14.5128 18.5281 14.5648 18.5281 14.626L18.5004 19.5139C18.5004 19.5965 18.2482 19.5965 18.2482 19.5139L18.2759 14.626C18.2759 14.5617 18.2236 14.5128 18.1621 14.5097C18.0975 14.5097 18.0483 14.5617 18.0452 14.6229L18.0175 19.5108C18.0175 19.5965 17.7561 19.5965 17.7561 19.5108L17.7838 14.6229C17.7838 14.5587 17.7315 14.5066 17.67 14.5066C17.6054 14.5066 17.5531 14.5587 17.5531 14.6199L17.5255 19.0946C17.5255 19.1772 17.2733 19.1772 17.2733 19.0946L17.3009 14.6199C17.3009 14.5556 17.2487 14.5066 17.1871 14.5036C17.1226 14.5036 17.0703 14.5556 17.0703 14.6168L17.0426 19.5047C17.0426 19.5873 16.7904 19.5873 16.7904 19.5047L16.8181 14.6168C16.8181 14.5525 16.7658 14.5036 16.7043 14.5005C16.6397 14.5005 16.5905 14.5525 16.5874 14.6138L16.5597 19.5016C16.5597 19.5843 16.3075 19.5843 16.3075 19.5016L16.3352 14.6138C16.3352 14.5495 16.2829 14.4975 16.2214 14.4975C16.1568 14.4975 16.1045 14.5495 16.1045 14.6107L16.0769 19.4986C16.0769 19.5812 15.8247 19.5812 15.8247 19.4986L15.8523 14.6107C15.8523 14.5464 15.8001 14.4944 15.7385 14.4944C15.674 14.4944 15.6217 14.5464 15.6217 14.6076L15.594 19.4955C15.594 19.5782 15.3418 19.5782 15.3418 19.4955L15.3695 14.6076C15.3695 14.5434 15.3172 14.4944 15.2557 14.4913C15.1911 14.4913 15.1419 14.5434 15.1388 14.6046L15.1111 19.4925C15.1111 19.5751 14.8589 19.5751 14.8589 19.4925L14.8866 14.6046C14.8866 14.5403 14.8343 14.4883 14.7728 14.4883C14.7082 14.4883 14.6559 14.5403 14.6559 14.6015L14.6283 17.4296C14.6283 17.5122 14.3761 17.5122 14.3761 17.4296L14.4038 14.5985C14.4038 14.5342 14.3515 14.4852 14.29 14.4821C14.2254 14.4821 14.1762 14.5342 14.1731 14.5954L14.1454 18.3998C14.1454 18.4824 13.8932 18.4824 13.8932 18.3998L13.9209 14.5954C13.9209 14.5311 13.8686 14.4821 13.8071 14.4791C13.7425 14.4791 13.6933 14.5311 13.6902 14.5923L13.6625 19.4802C13.6625 19.5629 13.4103 19.5629 13.4103 19.4802L13.438 14.5923C13.438 14.5281 13.3857 14.4791 13.3242 14.476C13.2596 14.476 13.2104 14.5281 13.2074 14.5893L13.1797 19.4772C13.1797 19.5598 12.9275 19.5598 12.9275 19.4772L12.9552 14.5893C12.9552 14.525 12.9029 14.476 12.8414 14.473C12.7768 14.473 12.7276 14.525 12.7245 14.5862L12.6968 18.914C12.6968 18.9966 12.4446 18.9966 12.4446 18.914L12.4723 14.5862C12.4723 14.5219 12.42 14.473 12.3585 14.4699C12.2939 14.4699 12.2447 14.5219 12.2416 14.5831L12.2139 19.471C12.2139 19.5537 11.9617 19.5537 11.9617 19.471L11.9894 14.5831C11.9894 14.5189 11.9371 14.4668 11.8756 14.4668C11.811 14.4668 11.7618 14.5189 11.7588 14.5801L11.7311 19.468C11.7311 19.5506 11.4789 19.5506 11.4789 19.468L11.5066 14.5801C11.5066 14.5158 11.4543 14.4668 11.3928 14.4638C11.3282 14.4638 11.279 14.5158 11.2759 14.577L11.2482 19.4649C11.2482 19.5476 10.996 19.5476 10.996 19.4649L11.0237 14.577C11.0237 14.5128 10.9714 14.4638 10.9099 14.4607C10.8453 14.4607 10.7961 14.5128 10.793 14.574L10.7654 19.4619C10.7654 19.5445 10.5132 19.5445 10.5132 19.4619L10.5408 14.574C10.5408 14.5097 10.4885 14.4607 10.427 14.4577C10.3625 14.4577 10.3102 14.5097 10.3102 14.5709L10.2825 17.2337C10.2825 17.3163 10.0303 17.3163 10.0303 17.2337L10.058 14.5709C10.058 14.5066 10.0057 14.4546 9.94417 14.4546C9.87959 14.4546 9.8273 14.5066 9.8273 14.5678L9.79962 17.2306C9.79962 17.3133 9.54742 17.3133 9.54742 17.2306L9.5751 14.5678C9.5751 14.5036 9.52282 14.4546 9.46131 14.4515C9.39672 14.4515 9.34444 14.5036 9.34444 14.5648L9.31676 19.4527C9.31676 19.5353 9.06456 19.5353 9.06456 19.4527L9.09224 14.5648C9.09224 14.5005 9.03996 14.4515 8.97844 14.4485C8.91386 14.4485 8.86157 14.5005 8.86157 14.5617L8.83389 19.4496C8.83389 19.5322 8.58169 19.5322 8.58169 19.4496L8.60938 14.5617C8.60938 14.4975 8.55709 14.4485 8.49558 14.4454C8.43099 14.4454 8.37871 14.4975 8.37871 14.5587L8.35103 19.4465C8.35103 19.5292 8.09883 19.5292 8.09883 19.4465L8.12651 14.5587C8.12651 14.4944 8.07423 14.4454 8.01271 14.4424C7.94813 14.4424 7.89584 14.4944 7.89584 14.5556L7.86816 19.4435C7.86816 19.5261 7.61597 19.5261 7.61597 19.4435L7.64365 14.5556C7.64365 14.4913 7.59136 14.4424 7.52985 14.4393C7.46526 14.4393 7.41605 14.4913 7.41298 14.5525L7.3853 19.4404C7.3853 19.5231 7.1331 19.5231 7.1331 19.4404L7.16078 14.5525C7.16078 14.4883 7.1085 14.4362 7.04698 14.4362C6.9824 14.4362 6.93319 14.4852 6.93011 14.5495L6.90243 19.4374C6.90243 19.52 6.65024 19.52 6.65024 19.4374L6.67792 14.5495C6.67792 14.4852 6.62563 14.4332 6.56412 14.4332C6.49953 14.4332 6.45032 14.4852 6.44725 14.5464L6.41957 16.239C6.41957 16.3216 6.16737 16.3216 6.16737 16.239L6.19505 14.5464C6.19505 14.4821 6.14277 14.4332 6.08126 14.4301C6.01667 14.4301 5.96746 14.4821 5.96438 14.5434L5.9367 19.4312C5.9367 19.5139 5.68451 19.5139 5.68451 19.4312L5.71219 14.5434C5.71219 14.4791 5.6599 14.4301 5.59839 14.4271C5.5338 14.4271 5.48459 14.4791 5.48152 14.5403L5.45384 19.4282C5.45384 19.5108 5.20164 19.5108 5.20164 19.4282L5.22932 14.5403C5.22932 14.476 5.17704 14.4271 5.11553 14.424C5.05094 14.424 5.00173 14.476 4.99865 14.5372L4.97097 18.4855C4.97097 18.5681 4.71878 18.5681 4.71878 18.4855L4.74646 14.5372C4.74646 14.473 4.69417 14.424 4.63266 14.424C4.57115 14.424 4.51887 14.473 4.51579 14.5372L4.48811 17.2276C4.48811 17.3102 4.23591 17.3102 4.23591 17.2276L4.26359 14.5372C4.26359 14.473 4.21131 14.424 4.1498 14.4209C4.08521 14.4209 4.036 14.473 4.03293 14.5342L4.00524 19.4221C4.00524 19.5047 3.75305 19.5047 3.75305 19.4221L3.78073 14.5342C3.78073 14.4699 3.72844 14.4209 3.66693 14.4179C3.60235 14.4179 3.55314 14.4699 3.55006 14.5311L3.52238 19.419C3.52238 19.5016 3.27018 19.5016 3.27018 19.419L3.29786 14.5311C3.29786 14.4668 3.24558 14.4179 3.18407 14.4148C3.11948 14.4148 3.07027 14.4668 3.0672 14.5281L3.03952 19.4159C3.03952 19.4986 2.78732 19.4986 2.78732 19.4159L2.815 14.5281C2.815 14.4638 2.76271 14.4118 2.7012 14.4118C2.63662 14.4118 2.58741 14.4638 2.58433 14.525L2.55665 19.4068C2.32906 19.367 2.15375 19.1282 2.15683 18.8467C2.20296 17.4724 1.99075 15.2749 1.99997 13.8853C1.99997 13.5762 2.22141 13.215 2.47669 13.163C10.5993 11.5592 21.4284 11.6174 29.5325 13.313C29.7878 13.3681 30.0031 13.7292 30 14.0384C29.9938 15.4279 29.7601 17.6255 29.7509 19.0119C29.7509 19.2935 29.5725 19.5292 29.3449 19.569L29.3726 14.6872C29.3726 14.6229 29.3203 14.5709 29.2588 14.5709C29.1942 14.5709 29.145 14.6229 29.1419 14.6842L29.1142 19.572C29.1142 19.6547 28.862 19.6547 28.862 19.572L28.8897 14.6842C28.8897 14.6199 28.8374 14.5678 28.7759 14.5678C28.7113 14.5678 28.659 14.6199 28.659 14.6811L28.6313 19.569C28.6313 19.6516 28.3791 19.6516 28.3791 19.569L28.4068 14.6811C28.4068 14.6168 28.3545 14.5648 28.293 14.5648C28.2284 14.5648 28.1762 14.6168 28.1762 14.678L28.1485 17.4388C28.1485 17.5214 27.8963 17.5214 27.8963 17.4388L27.924 14.678C27.924 14.6138 27.8717 14.5617 27.8102 14.5617C27.7456 14.5617 27.6933 14.6138 27.6933 14.675L27.6656 19.5629C27.6656 19.6455 27.4134 19.6455 27.4134 19.5629L27.4411 14.675C27.4411 14.6107 27.3888 14.5617 27.3273 14.5587C27.2627 14.5587 27.2135 14.6107 27.2104 14.6719L27.1828 18.2437C27.1828 18.3263 26.9306 18.3263 26.9306 18.2437L26.9582 14.6719C26.9582 14.6076 26.9059 14.5587 26.8444 14.5556C26.7799 14.5556 26.7276 14.6076 26.7276 14.6688L26.6999 19.5567C26.6999 19.6394 26.4477 19.6394 26.4477 19.5567L26.4754 14.6688C26.4754 14.6076 26.4231 14.5556 26.3616 14.5525C26.297 14.5525 26.2447 14.6046 26.2447 14.6658L26.217 19.5537C26.217 19.6363 25.9648 19.6363 25.9648 19.5537L25.9925 14.6658C25.9925 14.6015 25.9402 14.5495 25.8787 14.5495C25.8141 14.5495 25.7618 14.6015 25.7618 14.6627L25.7342 16.7379C25.7342 16.8205 25.482 16.8205 25.482 16.7379L25.5096 14.6627C25.5096 14.5985 25.4574 14.5464 25.3958 14.5464C25.3313 14.5464 25.279 14.5985 25.279 14.6597L25.2513 15.9819C25.2513 16.0645 24.9991 16.0645 24.9991 15.9819L25.0268 14.6597C25.0268 14.5954 24.9745 14.5434 24.913 14.5434C24.8484 14.5434 24.7961 14.5954 24.7961 14.6566L24.7684 15.9788C24.7684 16.0615 24.5162 16.0615 24.5162 15.9788L24.5255 15.9849Z" fill="#222222"/>
<path fill-rule="evenodd" clip-rule="evenodd" d="M24.6208 15.9483C24.6208 15.9483 24.6547 15.9483 24.67 15.9483L24.6977 14.6597C24.6977 14.574 24.6362 14.5006 24.5562 14.4853C24.6147 14.525 24.6485 14.5893 24.6485 14.6597L24.6208 15.9452V15.9483ZM25.036 14.4883C25.0945 14.5281 25.1283 14.5924 25.1283 14.6628L25.1006 15.9483C25.1006 15.9483 25.1344 15.9483 25.1498 15.9483L25.1775 14.6597C25.1775 14.574 25.1191 14.5006 25.036 14.4853V14.4883ZM25.5189 14.4883C25.5742 14.5281 25.6112 14.5924 25.6112 14.6628L25.5835 16.7012C25.5835 16.7012 25.6173 16.7012 25.6327 16.7012L25.6604 14.6597C25.6604 14.574 25.5989 14.5036 25.5189 14.4853V14.4883ZM26.0018 14.4883C26.0571 14.5281 26.094 14.5924 26.094 14.6628L26.0663 19.5139C26.0663 19.5139 26.1002 19.517 26.1155 19.5139L26.1432 14.6597C26.1432 14.574 26.0817 14.5036 26.0018 14.4853V14.4883ZM26.4846 14.4883C26.5431 14.5281 26.5769 14.5924 26.5769 14.6628L26.5492 19.5139C26.5492 19.5139 26.583 19.517 26.5984 19.5139L26.6261 14.6597C26.6261 14.574 26.5646 14.5036 26.4846 14.4853V14.4883ZM26.9675 14.4883C27.0259 14.5281 27.0598 14.5924 27.0598 14.6628L27.0321 18.2009C27.0321 18.2009 27.0659 18.204 27.0813 18.2009L27.109 14.6628C27.109 14.5771 27.0474 14.5036 26.9675 14.4883ZM27.4503 14.4883C27.5088 14.5281 27.5426 14.5924 27.5426 14.6628L27.5149 19.5139C27.5149 19.5139 27.5488 19.5139 27.5641 19.5139L27.5918 14.6597C27.5918 14.574 27.5334 14.5036 27.4503 14.4853V14.4883ZM27.9332 14.4914C27.9886 14.5312 28.0255 14.5954 28.0255 14.6658L27.9978 17.3898C27.9978 17.3898 28.0316 17.3898 28.047 17.3898L28.0747 14.6628C28.0747 14.5771 28.0163 14.5067 27.9332 14.4883V14.4914ZM28.4161 14.4914C28.4714 14.5312 28.5083 14.5954 28.5083 14.6658L28.4807 19.517C28.4807 19.517 28.5145 19.517 28.5299 19.517L28.5576 14.6628C28.5576 14.5771 28.4991 14.5067 28.4161 14.4883V14.4914ZM28.8989 14.4914C28.9543 14.5312 28.9912 14.5954 28.9912 14.6658L28.9635 19.517C28.9635 19.517 28.9974 19.517 29.0127 19.517L29.0404 14.6628C29.0404 14.5771 28.982 14.5067 28.8989 14.4883V14.4914ZM29.3818 14.4944C29.4402 14.5342 29.4741 14.5985 29.4741 14.6689L29.4464 19.4129C29.4648 19.4038 29.4802 19.3915 29.4956 19.3793L29.5233 14.672C29.5233 14.5863 29.4648 14.5128 29.3818 14.4975V14.4944ZM2.47056 13.2641C2.24604 13.3283 2.09534 13.6742 2.09534 13.8854C2.08611 15.5473 2.29833 17.2001 2.2891 18.862C2.2891 19.0181 2.35984 19.1987 2.49824 19.2844V19.263C2.39367 19.162 2.33831 19.0059 2.33831 18.862C2.34754 17.2001 2.13532 15.5473 2.14455 13.8854C2.14455 13.6803 2.27065 13.3742 2.47056 13.2641ZM2.85501 14.369C2.91037 14.4087 2.94727 14.473 2.94727 14.5434L2.91959 19.3946C2.91959 19.3946 2.95342 19.3946 2.9688 19.3946L2.99648 14.5404C2.99648 14.4547 2.93497 14.3843 2.85501 14.3659V14.369ZM3.33787 14.369C3.39323 14.4087 3.43014 14.473 3.43014 14.5434L3.40246 19.3946C3.40246 19.3946 3.43629 19.3976 3.45167 19.3946L3.47935 14.5404C3.47935 14.4547 3.41783 14.3843 3.33787 14.3659V14.369ZM3.82073 14.369C3.8761 14.4087 3.913 14.473 3.913 14.5434L3.88532 19.3946C3.88532 19.3946 3.91915 19.3946 3.93453 19.3946L3.96221 14.5404C3.96221 14.4547 3.9007 14.3843 3.82073 14.3659V14.369ZM4.3036 14.369C4.35896 14.4087 4.39587 14.473 4.39587 14.5434L4.36819 17.197C4.36819 17.197 4.40202 17.197 4.4174 17.197L4.44508 14.5434C4.44508 14.4577 4.38356 14.3873 4.3036 14.369ZM4.78646 14.369C4.84182 14.4087 4.87873 14.473 4.87873 14.5434L4.85105 18.458C4.85105 18.458 4.88488 18.458 4.90026 18.458L4.92794 14.5434C4.92794 14.4577 4.86643 14.3873 4.78646 14.369ZM5.26933 14.369C5.32469 14.4087 5.3616 14.473 5.3616 14.5434L5.33392 19.3946C5.33392 19.3946 5.36775 19.3946 5.38313 19.3946L5.41081 14.5404C5.41081 14.4547 5.35237 14.3843 5.26933 14.3659V14.369ZM5.75219 14.369C5.80755 14.4087 5.84446 14.473 5.84446 14.5434L5.81678 19.3946C5.81678 19.3946 5.85061 19.3946 5.86599 19.3946L5.89367 14.5404C5.89367 14.4547 5.83216 14.3843 5.75219 14.3659V14.369ZM6.23506 14.369C6.29042 14.4087 6.32733 14.473 6.32733 14.5434L6.29965 16.1992C6.29965 16.1992 6.33348 16.1992 6.34885 16.1992L6.37653 14.5404C6.37653 14.4547 6.31502 14.3843 6.23506 14.3659V14.369ZM6.71792 14.369C6.77636 14.4087 6.81019 14.473 6.81019 14.5434L6.78251 19.3946C6.78251 19.3946 6.81634 19.3946 6.83172 19.3946L6.8594 14.5404C6.8594 14.4547 6.79789 14.3843 6.71792 14.3659V14.369ZM7.20079 14.369C7.25615 14.4087 7.29305 14.473 7.29305 14.5434L7.26537 19.3946C7.26537 19.3946 7.29921 19.3946 7.31458 19.3946L7.34226 14.5404C7.34226 14.4547 7.28383 14.3843 7.20079 14.3659V14.369ZM7.68365 14.369C7.74209 14.4087 7.77592 14.473 7.77592 14.5434L7.74824 19.3946C7.74824 19.3946 7.78207 19.3946 7.79745 19.3946L7.82513 14.5404C7.82513 14.4547 7.76362 14.3843 7.68365 14.3659V14.369ZM8.16652 14.369C8.22188 14.4087 8.25878 14.473 8.25878 14.5434L8.2311 19.3946C8.2311 19.3946 8.26493 19.3976 8.28031 19.3946L8.30799 14.5404C8.30799 14.4547 8.24648 14.3812 8.16652 14.3659V14.369ZM8.64938 14.369C8.70474 14.4087 8.74165 14.473 8.74165 14.5434L8.71397 19.3946C8.71397 19.3946 8.7478 19.3946 8.76318 19.3946L8.79086 14.5404C8.79086 14.4547 8.72935 14.3843 8.64938 14.3659V14.369ZM9.13225 14.369C9.18761 14.4087 9.22451 14.473 9.22451 14.5434L9.19683 19.3946C9.19683 19.3946 9.23066 19.3976 9.24604 19.3946L9.27372 14.5404C9.27372 14.4547 9.21221 14.3843 9.13225 14.3659V14.369ZM9.61511 14.369C9.67047 14.4087 9.70738 14.473 9.70738 14.5434L9.6797 17.1695C9.6797 17.1695 9.71353 17.1695 9.72891 17.1695L9.75659 14.5404C9.75659 14.4547 9.69508 14.3812 9.61511 14.3659V14.369ZM10.098 14.372C10.1533 14.4118 10.1902 14.4761 10.1902 14.5465L10.1626 17.1725C10.1626 17.1725 10.1964 17.1725 10.2118 17.1725L10.2395 14.5434C10.2395 14.4577 10.181 14.3843 10.098 14.369V14.372ZM10.5808 14.372C10.6362 14.4118 10.6731 14.4761 10.6731 14.5465L10.6454 19.3976C10.6454 19.3976 10.6793 19.3976 10.6946 19.3976L10.7223 14.5434C10.7223 14.4577 10.6608 14.3843 10.5808 14.369V14.372ZM11.0637 14.372C11.1191 14.4118 11.156 14.4761 11.156 14.5465L11.1283 19.3976C11.1283 19.3976 11.1621 19.4007 11.1775 19.3976L11.2052 14.5434C11.2052 14.4577 11.1437 14.3873 11.0637 14.369V14.372ZM11.5466 14.372C11.6019 14.4118 11.6388 14.4761 11.6388 14.5465L11.6112 19.3976C11.6112 19.3976 11.645 19.3976 11.6604 19.3976L11.688 14.5434C11.688 14.4577 11.6296 14.3873 11.5466 14.369V14.372ZM12.0294 14.372C12.0848 14.4118 12.1217 14.4761 12.1217 14.5465L12.094 19.3976C12.094 19.3976 12.1279 19.4007 12.1432 19.3976L12.1709 14.5434C12.1709 14.4577 12.1125 14.3873 12.0294 14.369V14.372ZM12.5123 14.372C12.5677 14.4118 12.6046 14.4761 12.6046 14.5465L12.5769 18.8375C12.5769 18.8375 12.6107 18.8375 12.6261 18.8375L12.6538 14.5434C12.6538 14.4577 12.5923 14.3873 12.5123 14.369V14.372ZM12.9952 14.372C13.0505 14.4118 13.0874 14.4761 13.0874 14.5465L13.0598 19.3976C13.0598 19.3976 13.0936 19.3976 13.109 19.3976L13.1366 14.5434C13.1366 14.4577 13.0782 14.3873 12.9952 14.369V14.372ZM13.478 14.3751C13.5365 14.4149 13.5703 14.4791 13.5703 14.5495L13.5426 19.4007C13.5426 19.4007 13.5764 19.4007 13.5918 19.4007L13.6195 14.5465C13.6195 14.4608 13.558 14.3904 13.478 14.372V14.3751ZM13.9609 14.3751C14.0163 14.4149 14.0532 14.4791 14.0532 14.5495L14.0255 18.3172C14.0255 18.3172 14.0593 18.3203 14.0747 18.3172L14.1024 14.5495C14.1024 14.4638 14.0409 14.3934 13.9609 14.3751ZM14.4438 14.3751C14.4991 14.4149 14.536 14.4791 14.536 14.5495L14.5083 17.3439C14.5083 17.3439 14.5422 17.347 14.5576 17.3439L14.5852 14.5495C14.5852 14.4638 14.5237 14.3934 14.4438 14.3751ZM14.9266 14.3781C14.982 14.4179 15.0189 14.4822 15.0189 14.5526L14.9912 19.4038C14.9912 19.4038 15.025 19.4038 15.0404 19.4038L15.0681 14.5495C15.0681 14.4638 15.0097 14.3904 14.9266 14.3751V14.3781ZM15.4095 14.3781C15.4648 14.4179 15.5018 14.4822 15.5018 14.5526L15.4741 19.4038C15.4741 19.4038 15.5079 19.4038 15.5233 19.4038L15.551 14.5495C15.551 14.4638 15.4925 14.3904 15.4095 14.3751V14.3781ZM15.8924 14.3812C15.9477 14.4179 15.9846 14.4853 15.9846 14.5557L15.9569 19.4068C15.9569 19.4068 15.9908 19.4068 16.0061 19.4068L16.0338 14.5526C16.0338 14.4669 15.9754 14.3934 15.8924 14.3781V14.3812ZM16.3752 14.3812C16.4306 14.421 16.4675 14.4853 16.4675 14.5557L16.4398 19.4068C16.4398 19.4068 16.4736 19.4068 16.489 19.4068L16.5167 14.5526C16.5167 14.4669 16.4583 14.3965 16.3752 14.3781V14.3812ZM16.8581 14.3812C16.9134 14.421 16.9503 14.4853 16.9503 14.5557L16.9227 19.4068C16.9227 19.4068 16.9565 19.4099 16.9719 19.4068L16.9996 14.5526C16.9996 14.4669 16.938 14.3965 16.8581 14.3781V14.3812ZM17.3409 14.3812C17.3963 14.421 17.4332 14.4853 17.4332 14.5557L17.4055 18.9936C17.4055 18.9936 17.4394 18.9936 17.4547 18.9936L17.4824 14.5526C17.4824 14.4669 17.424 14.3965 17.3409 14.3781V14.3812ZM17.8238 14.3812C17.8792 14.421 17.9161 14.4853 17.9161 14.5557L17.8884 19.4099C17.8884 19.4099 17.9222 19.4129 17.9376 19.4099L17.9653 14.5557C17.9653 14.47 17.9069 14.3965 17.8238 14.3812ZM18.3159 14.3812C18.3713 14.421 18.4082 14.4853 18.4082 14.5557L18.3805 19.4068C18.3805 19.4068 18.4143 19.4068 18.4297 19.4068L18.4574 14.5526C18.4574 14.4669 18.3959 14.3934 18.3159 14.3781V14.3812ZM18.7988 14.3812C18.8541 14.421 18.891 14.4853 18.891 14.5557L18.8634 19.4068C18.8634 19.4068 18.8972 19.4068 18.9126 19.4068L18.9402 14.5526C18.9402 14.4669 18.8818 14.3934 18.7988 14.3781V14.3812ZM19.2816 14.3812C19.337 14.421 19.3739 14.4853 19.3739 14.5557L19.3462 16.4288C19.3462 16.4288 19.377 16.4288 19.3954 16.4288L19.4231 14.5557C19.4231 14.47 19.3647 14.3996 19.2816 14.3812ZM19.7645 14.3812C19.8199 14.421 19.8568 14.4853 19.8568 14.5557L19.8291 17.2246C19.8291 17.2246 19.8629 17.2246 19.8783 17.2246L19.906 14.5557C19.906 14.47 19.8475 14.3996 19.7645 14.3812ZM20.2474 14.3812C20.3027 14.421 20.3396 14.4853 20.3396 14.5557L20.3119 19.4068C20.3119 19.4068 20.3458 19.4068 20.3612 19.4068L20.3888 14.5526C20.3888 14.4669 20.3273 14.3965 20.2474 14.3781V14.3812ZM20.7302 14.3843C20.7856 14.424 20.8225 14.4883 20.8225 14.5587L20.7948 19.4099C20.7948 19.4099 20.8286 19.4099 20.844 19.4099L20.8717 14.5557C20.8717 14.47 20.8102 14.3996 20.7302 14.3812V14.3843ZM21.2131 14.3843C21.2685 14.424 21.3054 14.4883 21.3054 14.5587L21.2777 19.4099C21.2777 19.4099 21.3115 19.4099 21.3269 19.4099L21.3546 14.5557C21.3546 14.47 21.2961 14.3996 21.2131 14.3812V14.3843ZM21.696 14.3873C21.7513 14.424 21.7882 14.4914 21.7882 14.5618L21.7605 19.4129C21.7605 19.4129 21.7944 19.4129 21.8098 19.4129L21.8374 14.5587C21.8374 14.473 21.779 14.3996 21.696 14.3843V14.3873ZM22.1788 14.3873C22.2373 14.4271 22.2711 14.4914 22.2711 14.5618L22.2434 19.4129C22.2588 19.4129 22.2772 19.4129 22.2926 19.4129L22.3203 14.5587C22.3203 14.473 22.2588 14.4026 22.1788 14.3843V14.3873ZM22.6617 14.3873C22.717 14.4271 22.754 14.4914 22.754 14.5618L22.7263 18.8008C22.7263 18.8008 22.7601 18.8008 22.7755 18.8008L22.8032 14.5618C22.8032 14.4761 22.7416 14.4057 22.6617 14.3873ZM23.1445 14.3873C23.1999 14.4271 23.2368 14.4914 23.2368 14.5618L23.2091 19.4129C23.2091 19.4129 23.243 19.4129 23.2583 19.4129L23.286 14.5587C23.286 14.473 23.2245 14.4026 23.1445 14.3843V14.3873ZM23.6274 14.3873C23.6828 14.4271 23.7197 14.4914 23.7197 14.5618L23.692 19.4129C23.692 19.4129 23.7258 19.4129 23.7412 19.4129L23.7689 14.5587C23.7689 14.473 23.7074 14.4026 23.6274 14.3843V14.3873ZM24.1103 14.3873C24.1687 14.4271 24.2025 14.4914 24.2025 14.5618L24.1749 19.4129C24.1749 19.4129 24.2087 19.416 24.2241 19.4129L24.2518 14.5587C24.2518 14.473 24.1902 14.4026 24.1103 14.3843V14.3873Z" fill="white"/>
<path fill-rule="evenodd" clip-rule="evenodd" d="M29.6186 13.5303C29.5817 13.4997 29.5417 13.4783 29.4987 13.4691C27.3611 13.0223 25.1867 12.7162 23.0123 12.5081C20.6872 12.2847 18.3466 12.1745 16.0092 12.1592C13.6718 12.1469 11.3313 12.2326 9.00307 12.4285C6.82864 12.6121 4.64806 12.8937 2.50746 13.3192C2.48901 13.3222 2.47055 13.3283 2.4521 13.3375C2.40597 13.3498 2.35061 13.3957 2.30447 13.4599C2.23681 13.5548 2.21836 13.6589 2.26141 13.6895C2.30447 13.7201 2.39674 13.6681 2.4644 13.5732C2.52591 13.4875 2.54744 13.3987 2.51976 13.3589C4.62345 12.9855 6.7579 12.7376 8.89234 12.5724C11.2575 12.3887 13.6349 12.3091 16.0092 12.3244C18.3836 12.3367 20.761 12.4438 23.123 12.6519C25.2974 12.8448 27.4749 13.1263 29.6186 13.5334V13.5303Z" fill="white"/>
</g>
<defs>
<clipPath id="clip0_34_2">
<rect width="28" height="7.63636" fill="white" transform="translate(2 12)"/>
</clipPath>
</defs>
</svg>
